<svg xmlns="http://www.w3.org/2000/svg" width="1506" height="485" viewBox="0 0 1506 485" role="img" aria-label="LOCABLE logo">
  <title>LOCABLE logo</title>
  <path d="M 1336 210 L 1336 220 L 1337 221 L 1337 247 L 1338 248 L 1338 312 L 1337 313 L 1337 341 L 1336 342 L 1336 355 L 1347 355 L 1348 354 L 1400 354 L 1401 355 L 1412 355 L 1412 342 L 1410 343 L 1404 343 L 1403 344 L 1389 344 L 1388 345 L 1356 345 L 1355 344 L 1355 284 L 1356 283 L 1381 283 L 1382 284 L 1401 284 L 1402 285 L 1406 285 L 1406 272 L 1400 272 L 1399 273 L 1385 273 L 1384 274 L 1356 274 L 1355 273 L 1355 228 L 1356 227 L 1356 221 L 1357 220 L 1388 220 L 1389 221 L 1411 222 L 1411 217 L 1410 216 L 1411 214 L 1411 210 L 1391 210 L 1390 211 Z
M 1214 210 L 1214 215 L 1215 216 L 1215 239 L 1216 240 L 1216 324 L 1215 325 L 1215 349 L 1214 350 L 1214 355 L 1226 355 L 1227 354 L 1278 354 L 1279 355 L 1292 355 L 1291 352 L 1291 345 L 1292 342 L 1290 343 L 1282 343 L 1281 344 L 1268 344 L 1267 345 L 1235 345 L 1234 344 L 1233 246 L 1234 245 L 1234 219 L 1235 218 L 1235 210 L 1229 210 L 1228 211 Z
M 1077 210 L 1078 213 L 1078 240 L 1079 241 L 1079 329 L 1078 330 L 1078 352 L 1077 355 L 1082 355 L 1083 354 L 1127 355 L 1128 354 L 1138 353 L 1151 348 L 1157 344 L 1165 336 L 1169 329 L 1171 323 L 1171 317 L 1172 316 L 1171 303 L 1168 294 L 1160 285 L 1150 280 L 1147 280 L 1142 278 L 1135 278 L 1134 277 L 1137 275 L 1142 274 L 1153 268 L 1158 264 L 1163 257 L 1166 249 L 1166 231 L 1163 224 L 1153 215 L 1145 212 L 1137 211 L 1136 210 L 1107 210 L 1106 211 Z
M 1097 282 L 1114 282 L 1115 283 L 1129 284 L 1140 288 L 1146 293 L 1151 302 L 1151 305 L 1152 306 L 1152 319 L 1148 330 L 1143 337 L 1137 342 L 1124 347 L 1102 347 L 1098 345 L 1097 342 L 1097 315 L 1096 314 L 1096 283 Z
M 1138 223 L 1146 232 L 1147 238 L 1148 239 L 1148 249 L 1147 250 L 1146 256 L 1143 261 L 1138 266 L 1127 272 L 1124 272 L 1119 274 L 1097 274 L 1096 273 L 1096 250 L 1097 249 L 1097 225 L 1098 224 L 1098 219 L 1099 218 L 1112 218 L 1113 217 L 1114 218 L 1125 218 Z
M 455 210 L 455 221 L 456 222 L 456 249 L 457 250 L 457 314 L 456 315 L 456 342 L 455 343 L 455 355 L 467 355 L 468 354 L 519 354 L 520 355 L 533 355 L 532 353 L 532 344 L 533 342 L 530 343 L 522 343 L 521 344 L 509 344 L 508 345 L 476 345 L 475 344 L 475 336 L 474 335 L 474 237 L 475 236 L 475 213 L 476 210 L 470 210 L 469 211 Z
M 973 207 L 969 214 L 966 223 L 962 230 L 962 232 L 958 239 L 955 248 L 951 255 L 951 257 L 947 264 L 947 266 L 943 273 L 943 275 L 939 282 L 939 284 L 935 291 L 935 293 L 926 311 L 926 313 L 917 331 L 917 333 L 913 340 L 913 342 L 908 351 L 907 355 L 910 354 L 919 354 L 920 355 L 923 355 L 923 352 L 931 328 L 933 325 L 934 320 L 936 317 L 936 315 L 938 312 L 942 300 L 943 299 L 949 299 L 950 298 L 994 298 L 996 299 L 1002 312 L 1002 314 L 1004 317 L 1008 329 L 1010 332 L 1017 354 L 1018 355 L 1021 355 L 1022 354 L 1036 354 L 1037 355 L 1040 355 L 1037 349 L 1037 347 L 1033 340 L 1033 338 L 1029 331 L 1029 329 L 1025 322 L 1025 320 L 1022 315 L 1019 306 L 1016 301 L 1014 294 L 1011 289 L 1011 287 L 1008 282 L 1008 280 L 1003 270 L 1001 263 L 998 258 L 998 256 L 995 251 L 993 244 L 987 232 L 987 230 L 982 220 L 980 213 L 977 207 Z
M 970 237 L 976 249 L 979 258 L 983 265 L 986 274 L 990 281 L 990 283 L 993 288 L 992 289 L 948 289 L 947 288 L 950 283 L 950 281 L 953 276 L 953 274 L 956 269 L 956 267 L 959 262 L 959 260 L 962 255 L 962 253 L 965 248 L 968 239 Z
M 805 210 L 796 213 L 786 218 L 779 223 L 766 237 L 759 250 L 757 256 L 757 259 L 756 260 L 756 263 L 755 264 L 755 269 L 754 270 L 754 296 L 755 297 L 755 302 L 756 303 L 756 306 L 759 315 L 766 328 L 778 341 L 792 350 L 794 350 L 802 354 L 805 354 L 810 356 L 814 356 L 815 357 L 837 358 L 838 357 L 850 356 L 851 355 L 858 354 L 864 351 L 866 351 L 872 348 L 875 344 L 875 339 L 876 338 L 876 333 L 875 332 L 863 341 L 848 348 L 840 349 L 839 350 L 825 350 L 824 349 L 819 349 L 818 348 L 815 348 L 809 346 L 797 339 L 785 326 L 779 314 L 777 304 L 776 303 L 775 290 L 774 289 L 774 276 L 775 275 L 776 261 L 783 242 L 787 236 L 798 225 L 806 220 L 818 216 L 822 216 L 823 215 L 840 215 L 841 216 L 845 216 L 851 218 L 857 221 L 867 228 L 872 233 L 874 233 L 876 222 L 878 218 L 878 216 L 865 211 L 862 211 L 857 209 L 852 209 L 851 208 L 845 208 L 844 207 L 821 207 L 820 208 L 814 208 L 813 209 Z
M 602 215 L 589 224 L 580 234 L 572 248 L 569 257 L 569 260 L 568 261 L 568 265 L 567 266 L 566 287 L 567 288 L 568 302 L 570 306 L 571 312 L 577 324 L 582 331 L 590 339 L 600 346 L 613 352 L 623 354 L 624 355 L 629 355 L 630 356 L 660 356 L 661 355 L 666 355 L 667 354 L 670 354 L 671 353 L 674 353 L 680 351 L 698 341 L 709 330 L 714 323 L 721 307 L 722 299 L 723 298 L 723 292 L 724 291 L 724 271 L 723 270 L 722 259 L 718 247 L 708 231 L 700 223 L 690 216 L 682 212 L 673 209 L 666 208 L 665 207 L 659 207 L 658 206 L 632 206 L 631 207 L 625 207 L 624 208 L 617 209 Z
M 629 215 L 633 215 L 634 214 L 656 214 L 674 220 L 680 224 L 693 238 L 698 248 L 701 257 L 702 267 L 703 268 L 703 294 L 702 295 L 701 305 L 698 314 L 691 327 L 679 339 L 668 345 L 662 347 L 651 348 L 650 349 L 640 349 L 639 348 L 633 348 L 632 347 L 625 346 L 616 342 L 610 338 L 600 328 L 593 316 L 590 307 L 590 304 L 588 299 L 588 293 L 587 292 L 587 271 L 588 270 L 588 263 L 589 262 L 590 255 L 594 246 L 594 244 L 601 233 L 609 225 L 618 219 L 620 219 Z
M 94 157 L 94 389 L 299 389 L 299 326 L 160 326 L 159 325 L 159 157 Z" fill="#FFFFFF" fill-rule="evenodd"/>
  <path d="M 289 94 L 288 95 L 284 95 L 278 97 L 270 101 L 259 111 L 256 115 L 250 129 L 249 146 L 250 147 L 250 152 L 252 158 L 256 166 L 266 177 L 270 180 L 284 186 L 288 186 L 289 187 L 302 187 L 303 186 L 307 186 L 316 183 L 324 178 L 333 169 L 337 163 L 341 153 L 341 149 L 342 148 L 342 133 L 337 118 L 333 112 L 324 103 L 313 97 L 307 95 L 303 95 L 302 94 Z" fill="#F26522" fill-rule="evenodd"/>
</svg>
